<?xml version="1.0" standalone="no"?>
<!DOCTYPE svg PUBLIC "-//W3C//DTD SVG 20010904//EN"
 "http://www.w3.org/TR/2001/REC-SVG-20010904/DTD/svg10.dtd">
<svg version="1.0" xmlns="http://www.w3.org/2000/svg"
 width="1110.000000pt" height="824.000000pt" viewBox="0 0 1110.000000 824.000000"
 preserveAspectRatio="xMidYMid meet">

<g transform="translate(0.000000,824.000000) scale(0.100000,-0.100000)"
fill="#000000" stroke="none">
<path d="M0 4120 l0 -4120 5550 0 5550 0 0 3561 c0 2973 -2 3560 -13 3556 -19
-7 -41 8 -32 23 4 6 16 10 26 7 18 -5 19 11 19 544 l0 549 -5550 0 -5550 0 0
-4120z m2754 4059 c5 -15 6 -35 2 -45 -7 -17 -9 -17 -32 9 -13 15 -24 37 -24
48 0 31 42 21 54 -12z m4071 -9 c9 -15 -4 -50 -20 -50 -18 0 -28 30 -14 46 14
17 25 18 34 4z m-5465 -179 c0 -14 -18 -23 -30 -16 -6 4 -8 11 -5 16 8 12 35
12 35 0z m2985 -356 c0 -22 -31 -33 -48 -16 -7 7 -6 15 3 26 17 21 45 15 45
-10z m-3525 -340 c10 -12 10 -19 2 -27 -15 -15 -48 14 -38 31 10 15 21 14 36
-4z m9291 -16 c9 -17 8 -25 -4 -36 -19 -19 -37 -9 -37 21 0 40 23 49 41 15z
m-9831 -365 c0 -9 -7 -14 -17 -12 -25 5 -28 28 -4 28 12 0 21 -6 21 -16z
m3630 -153 c0 -5 -6 -14 -14 -20 -16 -13 -32 2 -21 19 8 12 35 13 35 1z m-690
-181 c0 -19 -20 -27 -33 -13 -8 7 11 33 24 33 5 0 9 -9 9 -20z m-760 -69 c0
-12 -29 -35 -36 -28 -11 10 5 37 21 37 8 0 15 -4 15 -9z m7016 -2 c9 -15 -11
-33 -30 -26 -9 4 -13 13 -10 22 7 17 30 20 40 4z m-8549 -43 c-4 -9 -11 -16
-17 -16 -15 0 -24 26 -16 47 6 15 8 15 23 1 9 -9 13 -24 10 -32z m7801 -117
c4 -30 -22 -46 -44 -28 -17 14 -18 31 -2 47 19 19 43 9 46 -19z m-6480 -1 c-6
-18 -28 -21 -28 -4 0 9 7 16 16 16 9 0 14 -5 12 -12z m4200 -50 c29 -29 -4
-76 -42 -62 -30 11 -13 74 19 74 6 0 16 -5 23 -12z m2026 -33 c4 -10 -1 -15
-14 -15 -20 0 -26 11 -13 23 10 11 20 8 27 -8z m2266 -59 c0 -17 -27 -29 -35
-16 -4 6 -3 15 0 20 9 15 35 12 35 -4z m-10347 -82 c11 -11 -5 -34 -23 -34
-18 0 -34 23 -23 34 4 3 14 6 23 6 9 0 19 -3 23 -6z m8481 -396 c15 -24 -10
-51 -35 -37 -22 11 -24 30 -7 47 15 15 28 11 42 -10z m-2646 -11 c2 -11 -3
-17 -16 -17 -24 0 -32 8 -25 26 7 20 37 13 41 -9z m1670 -195 c2 -14 -2 -22
-12 -22 -19 0 -29 17 -22 36 8 22 30 12 34 -14z m1666 -928 c24 -24 20 -63 -8
-75 -45 -21 -83 20 -65 69 10 26 50 30 73 6z m-5424 -335 c14 -26 -4 -51 -34
-47 -24 4 -33 33 -16 53 17 21 37 19 50 -6z m6784 8 c25 -18 13 -55 -21 -63
-28 -8 -53 15 -53 47 0 29 44 38 74 16z m-8094 -252 c0 -8 -7 -15 -15 -15 -16
0 -20 12 -8 23 11 12 23 8 23 -8z m-1750 -260 c0 -26 -14 -33 -25 -15 -9 14 1
40 15 40 5 0 10 -11 10 -25z m-236 -1 c21 -8 21 -40 0 -48 -25 -10 -54 3 -54
23 0 30 19 38 54 25z m10160 -187 c27 -20 18 -61 -15 -65 -36 -4 -55 21 -41
53 13 28 29 31 56 12z m-4070 -122 c3 -9 -1 -18 -10 -22 -19 -7 -28 2 -21 22
8 19 23 19 31 0z m-6623 -66 c15 -28 -9 -54 -40 -44 -25 8 -28 40 -3 54 25 15
30 14 43 -10z m7607 -231 c19 -19 15 -48 -7 -48 -24 0 -45 25 -37 45 7 18 27
20 44 3z m-5953 -47 c7 -12 -12 -24 -25 -16 -11 7 -4 25 10 25 5 0 11 -4 15
-9z m9030 -90 c13 -41 -26 -75 -54 -47 -12 12 -12 20 -3 41 14 29 48 34 57 6z
m-10465 -61 c0 -12 -28 -25 -36 -17 -9 9 6 27 22 27 8 0 14 -5 14 -10z m2335
1 c7 -12 -12 -24 -25 -16 -11 7 -4 25 10 25 5 0 11 -4 15 -9z m480 -141 c0
-16 -6 -26 -19 -28 -25 -5 -39 12 -31 38 10 31 50 24 50 -10z m319 -65 c8 -23
-4 -45 -25 -45 -20 0 -39 28 -32 48 6 17 50 15 57 -3z m-1703 -75 c23 -13 25
-43 3 -61 -31 -26 -70 25 -44 56 15 18 16 18 41 5z m2467 -103 c2 -11 -3 -17
-16 -17 -24 0 -32 8 -25 26 7 20 37 13 41 -9z m-3398 -131 c0 -8 -4 -17 -9
-21 -12 -7 -24 12 -16 25 9 15 25 12 25 -4z m-80 -36 c0 -6 -7 -13 -15 -16
-20 -8 -48 3 -40 16 8 13 55 13 55 0z m1525 -90 c0 -38 -24 -52 -50 -30 -31
25 -9 73 30 68 16 -2 20 -11 20 -38z m1694 -44 c10 -12 8 -17 -8 -25 -26 -15
-41 -14 -41 2 0 14 19 37 31 37 4 0 12 -6 18 -14z m3008 -48 c-3 -8 -6 -5 -6
6 -1 11 2 17 5 13 3 -3 4 -12 1 -19z m-7017 -223 c0 -16 -27 -32 -37 -22 -3 4
-3 13 0 22 8 20 37 20 37 0z m1945 -250 c0 -10 -5 -20 -11 -22 -13 -4 -27 24
-18 38 9 15 29 4 29 -16z m1512 -31 c7 -18 -17 -38 -30 -25 -9 9 1 41 14 41 5
0 12 -7 16 -16z m4663 -91 c0 -20 -3 -24 -11 -16 -7 7 -9 19 -6 27 10 24 17
19 17 -11z m1935 -72 c7 -12 -12 -24 -25 -16 -11 7 -4 25 10 25 5 0 11 -4 15
-9z m-1399 -421 c4 -16 13 -35 20 -41 8 -6 14 -18 14 -25 0 -26 -38 -14 -69
21 -43 49 -41 75 6 75 18 0 25 -7 29 -30z m-8493 -67 c8 -7 -11 -33 -24 -33
-5 0 -9 9 -9 20 0 19 20 27 33 13z m1025 -165 c7 -7 12 -20 12 -30 0 -23 -58
-26 -66 -3 -14 37 26 61 54 33z m2621 -362 c9 -10 9 -16 1 -21 -13 -8 -42 14
-34 26 8 13 20 11 33 -5z m-1355 -134 c-6 -9 -17 -17 -25 -17 -18 0 -24 32 -8
51 11 13 14 13 28 -1 12 -12 13 -19 5 -33z m3900 -60 c2 -4 0 -14 -5 -22 -8
-13 -10 -13 -18 0 -10 15 -6 30 9 30 5 0 11 -4 14 -8z m4550 -151 c3 -5 -1
-12 -10 -15 -20 -8 -29 -1 -19 13 8 13 22 14 29 2z"/>
</g>
</svg>
