<?xml version="1.0" encoding="UTF-8"?>
<svg xmlns="http://www.w3.org/2000/svg" xmlns:xlink="http://www.w3.org/1999/xlink" width="24px" height="24px" viewBox="0 0 24 24" version="1.1">
<g id="surface1">
<path style=" stroke:none;fill-rule:nonzero;fill:rgb(59.215686%,80.784314%,29.411765%);fill-opacity:1;" d="M 13.203125 23.25 C 12.980469 23.25 12.769531 23.152344 12.625 22.980469 L 3.921875 12.480469 C 3.691406 12.203125 3.691406 11.800781 3.921875 11.523438 L 12.625 1.023438 C 12.792969 0.808594 13.066406 0.703125 13.335938 0.746094 C 13.605469 0.789062 13.828125 0.976562 13.921875 1.230469 C 14.015625 1.488281 13.960938 1.773438 13.78125 1.980469 L 5.476562 12 L 13.78125 22.019531 C 13.96875 22.242188 14.007812 22.554688 13.882812 22.820312 C 13.761719 23.082031 13.496094 23.25 13.203125 23.25 Z M 13.203125 23.25 "/>
<path style=" stroke:none;fill-rule:nonzero;fill:rgb(59.215686%,80.784314%,29.411765%);fill-opacity:1;" d="M 19.5 23.25 C 19.277344 23.25 19.066406 23.152344 18.921875 22.980469 L 10.21875 12.480469 C 9.988281 12.203125 9.988281 11.800781 10.21875 11.523438 L 18.921875 1.023438 C 19.089844 0.808594 19.363281 0.703125 19.632812 0.746094 C 19.902344 0.789062 20.125 0.976562 20.21875 1.230469 C 20.3125 1.488281 20.257812 1.773438 20.078125 1.980469 L 11.765625 12 L 20.078125 22.019531 C 20.265625 22.242188 20.304688 22.554688 20.179688 22.820312 C 20.054688 23.082031 19.792969 23.25 19.5 23.25 Z M 19.5 23.25 "/>
</g>
</svg>
