<?xml version="1.0" encoding="UTF-8"?>
<svg xmlns="http://www.w3.org/2000/svg" xmlns:xlink="http://www.w3.org/1999/xlink" width="24px" height="24px" viewBox="0 0 24 24" version="1.1">
<g id="surface1">
<path style=" stroke:none;fill-rule:nonzero;fill:rgb(59.215686%,80.784314%,29.411765%);fill-opacity:1;" d="M 10.796875 23.25 C 10.503906 23.25 10.238281 23.082031 10.117188 22.820312 C 9.992188 22.554688 10.03125 22.242188 10.21875 22.019531 L 18.523438 12 L 10.21875 1.980469 C 9.96875 1.660156 10.015625 1.199219 10.332031 0.9375 C 10.644531 0.679688 11.105469 0.71875 11.375 1.023438 L 20.078125 11.523438 C 20.308594 11.800781 20.308594 12.203125 20.078125 12.480469 L 11.375 22.980469 C 11.230469 23.152344 11.019531 23.25 10.796875 23.25 Z M 10.796875 23.25 "/>
<path style=" stroke:none;fill-rule:nonzero;fill:rgb(59.215686%,80.784314%,29.411765%);fill-opacity:1;" d="M 4.5 23.25 C 4.207031 23.25 3.945312 23.082031 3.820312 22.820312 C 3.695312 22.554688 3.734375 22.242188 3.921875 22.019531 L 12.234375 12 L 3.921875 1.980469 C 3.742188 1.773438 3.6875 1.488281 3.78125 1.230469 C 3.875 0.976562 4.097656 0.789062 4.367188 0.746094 C 4.636719 0.703125 4.910156 0.808594 5.078125 1.023438 L 13.78125 11.523438 C 14.011719 11.800781 14.011719 12.203125 13.78125 12.480469 L 5.078125 22.980469 C 4.933594 23.152344 4.722656 23.25 4.5 23.25 Z M 4.5 23.25 "/>
</g>
</svg>
