<?xml version="1.0" standalone="no"?>
<!DOCTYPE svg PUBLIC "-//W3C//DTD SVG 20010904//EN"
 "http://www.w3.org/TR/2001/REC-SVG-20010904/DTD/svg10.dtd">
<svg version="1.0" xmlns="http://www.w3.org/2000/svg"
 width="600.000000pt" height="750.000000pt" viewBox="0 0 600.000000 750.000000"
 preserveAspectRatio="xMidYMid meet">

<g transform="translate(0.000000,750.000000) scale(0.100000,-0.100000)"
fill="#000000" stroke="none">
<path d="M2 3753 l3 -3748 710 -2 711 -3 23 128 c12 70 36 182 51 249 30 127
259 834 282 873 17 29 82 61 219 108 140 49 498 146 506 138 5 -5 -5 -134 -28
-356 -6 -52 -29 -214 -51 -360 -22 -146 -46 -312 -54 -370 -8 -58 -20 -134
-28 -170 -8 -36 -19 -92 -25 -125 -5 -33 -12 -72 -16 -87 -6 -24 -4 -28 14
-28 14 0 25 9 31 24 13 34 44 201 74 393 14 89 34 197 45 240 11 43 22 123 26
178 3 55 13 145 20 200 8 55 22 168 30 250 21 202 16 192 76 150 61 -42 109
-50 248 -42 161 10 323 64 426 143 20 15 39 24 43 20 9 -10 9 -378 -1 -631 -8
-209 -15 -299 -52 -680 -13 -126 -21 -233 -18 -237 2 -5 20 -8 40 -8 35 0 35
1 19 19 -15 16 -15 31 -6 137 6 65 17 160 25 209 24 145 38 441 42 869 1 219
4 401 6 403 7 7 220 31 327 37 58 4 171 11 251 18 81 6 158 8 171 5 32 -8 111
-138 210 -345 39 -81 100 -208 135 -282 155 -321 194 -414 283 -675 58 -168
96 -302 102 -360 l3 -30 560 0 560 0 3 3748 2 3747 -3000 0 -3000 0 2 -3747z
m3942 3375 c-2 -29 -11 -98 -19 -153 -38 -267 -53 -530 -50 -880 1 -210 3
-234 23 -277 30 -68 67 -88 162 -88 121 0 299 26 654 95 182 36 342 65 355 65
30 0 30 1 -76 -178 -213 -362 -262 -449 -359 -642 -56 -113 -105 -217 -109
-231 -5 -21 2 -35 40 -77 139 -155 404 -322 685 -434 41 -16 79 -33 84 -38 4
-4 -3 -16 -17 -25 -33 -22 -328 -153 -497 -222 -153 -62 -203 -92 -220 -133
-20 -47 2 -88 88 -172 96 -93 155 -137 365 -278 92 -61 167 -115 167 -119 0
-16 -93 -53 -333 -132 -328 -109 -337 -114 -337 -190 0 -41 12 -72 74 -191 40
-79 77 -153 81 -166 6 -22 6 -23 -57 -17 -78 7 -211 23 -303 35 -98 13 -196
12 -224 -3 -44 -22 -43 -54 6 -163 25 -54 51 -117 59 -138 l14 -39 -127 7
c-157 8 -193 14 -193 32 0 8 34 82 75 164 41 83 87 185 101 228 31 91 35 98
74 106 66 13 175 73 217 119 129 140 73 356 -117 452 -57 29 -56 21 -40 195
14 148 13 869 0 977 -36 274 -149 497 -371 728 -202 210 -428 327 -716 371
-157 23 -332 9 -500 -42 -205 -62 -274 -105 -430 -267 -113 -117 -187 -224
-263 -377 -40 -81 -61 -111 -91 -132 -44 -31 -50 -61 -21 -99 15 -19 18 -37
14 -91 -4 -63 -6 -68 -44 -99 -22 -17 -58 -59 -79 -92 -112 -173 -105 -393 18
-555 l33 -42 0 -170 c0 -154 -2 -171 -18 -176 -85 -27 -126 -75 -144 -172
l-11 -62 -32 33 c-46 46 -104 72 -274 120 -83 23 -151 44 -151 47 0 3 57 46
127 95 229 163 297 252 296 391 -1 64 -6 85 -33 141 -60 122 -225 269 -407
364 -46 24 -80 46 -75 50 4 4 52 24 107 44 190 70 481 238 510 296 32 61 21
85 -144 304 -62 82 -150 206 -196 275 -79 119 -205 336 -205 352 0 15 32 8
284 -57 138 -35 291 -71 340 -80 154 -26 314 -14 309 25 -1 8 -13 60 -27 114
-40 152 -50 265 -43 496 6 208 32 524 46 548 5 9 53 -39 151 -150 183 -207
418 -447 540 -551 52 -45 97 -85 100 -88 12 -15 92 -49 101 -43 6 3 55 66 108
138 209 281 421 514 688 756 97 87 253 220 259 220 2 0 1 -24 -2 -52z m-766
-1479 c129 -26 195 -48 291 -100 150 -81 271 -181 384 -318 140 -168 215 -307
259 -479 26 -104 30 -142 38 -342 10 -279 3 -632 -15 -810 -8 -74 -21 -211
-30 -305 -16 -176 -23 -220 -55 -365 -31 -135 -61 -213 -156 -398 l-88 -172
-130 -128 c-152 -148 -198 -181 -367 -258 -167 -76 -314 -113 -484 -121 -112
-5 -142 -3 -212 15 -100 25 -211 76 -306 139 -137 91 -328 296 -376 403 -22
51 -58 217 -48 226 3 4 22 -1 41 -10 44 -21 56 -20 56 2 0 12 -18 29 -52 47
-182 99 -192 212 -26 296 59 30 79 52 61 70 -6 6 -31 -3 -67 -22 -31 -17 -60
-28 -64 -25 -12 13 -32 243 -38 447 l-7 206 69 -23 c221 -73 454 -78 454 -8
l0 24 -41 -17 c-74 -29 -306 1 -431 57 l-48 21 0 84 c0 47 2 85 4 85 2 0 32
-13 67 -29 141 -65 374 -80 504 -32 106 39 99 42 70 -35 -32 -85 -57 -233 -58
-344 -2 -347 224 -272 380 124 29 76 30 98 2 94 -15 -2 -28 -21 -48 -74 -42
-107 -98 -201 -156 -261 -78 -81 -108 -71 -127 40 -16 96 11 309 52 413 17 42
28 84 25 92 -3 8 10 38 30 66 20 29 48 86 62 127 25 68 27 87 27 229 0 178 -2
187 -84 295 -57 76 -77 95 -97 95 -27 0 -11 -39 40 -102 66 -80 85 -119 93
-191 5 -44 4 -58 -7 -61 -20 -7 -909 -14 -913 -7 -7 11 43 143 67 179 41 62
105 117 188 161 78 42 101 71 56 71 -12 0 -40 -9 -62 -20 -22 -11 -41 -20 -42
-20 -7 0 -2 56 6 68 7 11 19 11 67 -2 86 -22 447 -34 1121 -38 l572 -3 35 34
c62 61 39 135 -52 165 -84 28 -151 35 -552 58 -491 29 -879 30 -1024 5 -54
-10 -101 -15 -104 -12 -4 3 11 40 31 81 114 230 317 450 492 534 89 42 238 87
330 100 87 12 275 2 393 -21z m-558 -709 c102 -5 316 -17 475 -25 432 -23 515
-36 545 -88 14 -25 13 -28 -8 -49 -21 -21 -31 -23 -125 -22 -1048 11 -1283 15
-1397 23 -157 13 -275 39 -275 61 0 38 181 88 358 99 179 12 223 12 427 1z
m-242 -677 l202 -6 0 -41 c-1 -109 -63 -263 -127 -312 -71 -54 -134 -69 -293
-69 -125 0 -155 3 -215 23 -82 27 -163 78 -199 124 -41 55 -87 163 -93 222
l-6 56 62 0 c47 0 61 -3 61 -15 0 -52 59 -97 99 -76 26 14 41 42 41 75 l0 26
133 0 c72 0 223 -3 335 -7z m-638 -760 c0 -15 5 -90 10 -167 18 -256 18 -236
0 -226 -41 22 -100 100 -116 156 -31 108 1 227 70 254 33 13 36 12 36 -17z
m2488 -117 c26 -13 57 -35 69 -48 37 -39 63 -108 63 -168 0 -76 -27 -131 -87
-174 -49 -37 -147 -75 -160 -63 -3 4 1 49 10 100 14 72 46 332 47 370 0 11 7
9 58 -17z m-2577 -250 c22 -24 59 -57 84 -73 43 -27 45 -30 45 -75 0 -34 -7
-58 -25 -84 -40 -59 -28 -117 39 -192 33 -36 37 -46 43 -117 l6 -78 -111 6
c-61 3 -116 8 -121 12 -6 3 9 35 33 73 50 78 66 120 66 172 0 59 -16 65 -147
63 -62 -1 -113 0 -113 3 0 3 19 32 41 66 51 74 96 173 105 227 4 23 9 41 12
41 2 0 22 -20 43 -44z m1646 -1378 c-6 -136 -9 -154 -28 -174 -27 -28 -152
-91 -222 -111 -108 -30 -125 -33 -238 -33 -112 0 -117 1 -155 28 -67 49 -67
48 -68 207 l-1 145 45 -7 c25 -5 110 -8 190 -7 122 1 161 5 245 27 55 14 127
37 160 51 33 14 64 25 69 26 5 0 6 -63 3 -152z"/>
<path d="M2796 4513 c-119 -170 -138 -262 -91 -429 69 -241 182 -363 382 -410
133 -31 348 1 483 72 128 67 196 171 226 344 19 112 9 211 -31 298 -31 67
-145 212 -167 212 -27 0 -29 -16 -5 -48 105 -144 126 -177 137 -217 7 -25 10
-48 7 -52 -4 -3 -64 -1 -134 5 -215 19 -479 24 -667 13 -99 -5 -185 -7 -192
-3 -19 11 23 97 97 199 58 80 74 123 44 123 -8 0 -48 -48 -89 -107z m879 -275
c76 -13 80 -15 83 -41 5 -44 -25 -183 -54 -247 -67 -150 -256 -242 -494 -241
-154 1 -249 39 -338 135 -73 81 -142 253 -142 359 l0 47 64 0 64 0 6 -34 c8
-42 28 -59 68 -59 38 0 68 33 68 75 l0 30 298 -6 c170 -3 331 -11 377 -18z"/>
<path d="M3727 3648 c-45 -106 -191 -161 -407 -154 -58 2 -120 7 -137 11 -29
7 -33 5 -33 -13 0 -31 57 -45 190 -46 201 -1 329 44 402 141 41 53 46 85 16
91 -12 2 -22 -8 -31 -30z"/>
<path d="M3400 2890 c0 -11 7 -23 16 -27 21 -8 114 -142 114 -164 0 -10 -11
-31 -25 -47 -28 -33 -58 -42 -205 -62 -88 -12 -110 -22 -110 -48 0 -12 11 -13
73 -8 116 12 220 34 247 54 74 55 85 120 34 194 -76 109 -144 160 -144 108z"/>
<path d="M2004 2870 c-88 -9 -114 -17 -114 -35 0 -24 15 -25 121 -9 245 37
942 -29 1269 -121 83 -24 108 -22 97 8 -12 31 -338 98 -637 131 -149 17 -498
37 -605 34 -33 0 -92 -4 -131 -8z"/>
<path d="M2426 1378 c-7 -13 -49 -88 -91 -168 -43 -80 -135 -233 -205 -340
-70 -107 -153 -243 -184 -301 -83 -157 -79 -192 57 -434 l72 -130 40 -3 40 -3
-26 28 c-34 37 -130 201 -163 280 -53 127 -33 181 205 549 131 202 301 508
293 528 -9 22 -21 20 -38 -6z"/>
<path d="M3493 1349 c-9 -9 4 -42 48 -128 209 -408 399 -867 399 -966 0 -47
-42 -140 -93 -208 l-37 -47 28 0 c15 0 32 4 39 8 6 4 34 51 62 105 37 71 51
108 51 139 0 72 -120 390 -232 612 -28 56 -76 160 -108 232 -60 139 -126 264
-138 264 -5 0 -13 -5 -19 -11z"/>
<path d="M4114 683 c4 -32 20 -115 36 -184 33 -142 66 -330 76 -432 6 -62 9
-67 30 -67 16 0 24 6 24 18 -2 43 -41 273 -75 427 -20 94 -39 197 -43 230 -6
53 -10 60 -31 63 -24 4 -24 3 -17 -55z"/>
<path d="M1710 638 c-1 -22 -61 -574 -66 -600 -6 -37 -6 -38 22 -38 l29 0 2
78 c1 42 12 165 24 272 35 315 34 290 10 290 -12 0 -21 -1 -21 -2z"/>
</g>
</svg>
