<?xml version="1.0" encoding="UTF-8"?>
<svg xmlns="http://www.w3.org/2000/svg" xmlns:xlink="http://www.w3.org/1999/xlink" width="24px" height="24px" viewBox="0 0 24 24" version="1.1">
<g id="surface1">
<path style=" stroke:none;fill-rule:nonzero;fill:rgb(31.372549%,48.627451%,36.078431%);fill-opacity:1;" d="M 20.273438 24 L 18.5 24 C 18.125 24 17.820312 23.695312 17.820312 23.320312 C 17.820312 22.941406 18.125 22.636719 18.5 22.636719 L 20.273438 22.636719 C 21.578125 22.636719 22.636719 21.578125 22.636719 20.273438 L 22.636719 3.726562 C 22.636719 2.421875 21.578125 1.363281 20.273438 1.363281 L 10.046875 1.363281 C 9.671875 1.363281 9.367188 1.058594 9.367188 0.679688 C 9.367188 0.304688 9.671875 0 10.046875 0 L 20.273438 0 C 22.328125 0 24 1.671875 24 3.726562 L 24 20.273438 C 24 22.328125 22.328125 24 20.273438 24 Z M 13.578125 24 L 3.726562 24 C 1.671875 24 0 22.328125 0 20.273438 L 0 3.726562 C 0 1.671875 1.671875 0 3.726562 0 L 5.261719 0 C 5.636719 0 5.941406 0.304688 5.941406 0.679688 C 5.941406 1.058594 5.636719 1.363281 5.261719 1.363281 L 3.726562 1.363281 C 2.421875 1.363281 1.363281 2.421875 1.363281 3.726562 L 1.363281 20.273438 C 1.363281 21.578125 2.421875 22.636719 3.726562 22.636719 L 13.578125 22.636719 C 13.957031 22.636719 14.261719 22.941406 14.261719 23.320312 C 14.261719 23.695312 13.957031 24 13.578125 24 Z M 13.578125 24 "/>
<path style=" stroke:none;fill-rule:nonzero;fill:rgb(59.215686%,80.784314%,29.411765%);fill-opacity:1;" d="M 18.613281 5.65625 L 4.734375 11.066406 C 4.285156 11.242188 4.3125 11.886719 4.773438 12.023438 L 7.945312 12.960938 L 8.929688 16.648438 C 9.066406 17.085938 9.621094 17.21875 9.941406 16.890625 L 11.890625 15.027344 L 16.03125 18.246094 C 16.46875 18.570312 17.089844 18.328125 17.203125 17.796875 L 19.570312 6.46875 C 19.6875 5.914062 19.140625 5.453125 18.613281 5.65625 Z M 18.613281 5.65625 "/>
<path style=" stroke:none;fill-rule:nonzero;fill:rgb(31.372549%,48.627451%,36.078431%);fill-opacity:1;" d="M 16.46875 19.074219 C 16.164062 19.074219 15.875 18.976562 15.628906 18.796875 C 15.621094 18.792969 15.617188 18.789062 15.613281 18.785156 L 11.9375 15.925781 L 10.417969 17.375 C 10.175781 17.621094 9.851562 17.753906 9.511719 17.753906 C 8.945312 17.753906 8.449219 17.390625 8.28125 16.851562 C 8.277344 16.84375 8.277344 16.835938 8.273438 16.824219 L 7.386719 13.503906 L 4.582031 12.675781 C 4.089844 12.53125 3.753906 12.101562 3.734375 11.589844 C 3.710938 11.074219 4.007812 10.621094 4.488281 10.433594 L 18.367188 5.023438 C 18.527344 4.960938 18.703125 4.925781 18.875 4.925781 C 19.296875 4.925781 19.691406 5.117188 19.957031 5.445312 C 20.222656 5.769531 20.324219 6.195312 20.238281 6.609375 L 17.867188 17.9375 C 17.730469 18.59375 17.144531 19.074219 16.46875 19.074219 Z M 16.4375 17.703125 C 16.449219 17.707031 16.457031 17.710938 16.46875 17.710938 C 16.476562 17.710938 16.523438 17.710938 16.535156 17.660156 L 18.90625 6.328125 C 18.910156 6.316406 18.90625 6.3125 18.902344 6.304688 C 18.894531 6.296875 18.882812 6.289062 18.875 6.289062 C 18.871094 6.289062 18.867188 6.289062 18.859375 6.292969 L 5.457031 11.515625 L 8.136719 12.304688 C 8.367188 12.375 8.542969 12.554688 8.601562 12.785156 L 9.546875 16.324219 L 11.421875 14.535156 C 11.667969 14.304688 12.042969 14.285156 12.308594 14.492188 Z M 16.4375 17.703125 "/>
<path style=" stroke:none;fill-rule:nonzero;fill:rgb(31.372549%,48.627451%,36.078431%);fill-opacity:1;" d="M 10.296875 16.886719 C 10.320312 16.953125 11.097656 15.980469 11.105469 15.90625 L 10.757812 14.195312 C 10.710938 13.96875 10.792969 13.734375 10.96875 13.589844 L 17.382812 8.261719 C 17.535156 8.125 17.355469 7.882812 17.183594 7.992188 L 9.640625 12.589844 C 9.464844 12.699219 9.371094 12.910156 9.410156 13.113281 Z M 10.296875 16.886719 "/>
</g>
</svg>
